# xmcd
#
# Track frame offsets: 
#        150
#        11098
#        25280
#        37092
#        56762
#        75501
#        90914
#        107564
#        121513
#        135521
#        156248
#        170802
#        192337
#        207301
#        232073
#        242576
#        271169
#        281766
#
# Disc length: 3930 seconds
#
# Revision: 2
# Processed by: cddbd v1.5.2PL0 Copyright (c) Steve Scherf et al.
# Submitted via: ExactAudioCopy v1.1
#
DISCID=f20f5812
DTITLE=Various Artist - Collection of various Interpretations of Ain't No Sun
DTITLE=shine, A
DYEAR=2006
DGENRE=Pop
TTITLE0=Rahsaan Roland Kirk - Ain't No Sunshine
TTITLE1=4 To The Bar - Ain't No Sunshine
TTITLE2=Tom Jones - Ain't No Sunshine
TTITLE3=Rodney Jones - Ain't No Sunshine
TTITLE4=David Sanborn (with Sting) - Ain't No Sunshine
TTITLE5=Eva Cassidy - Ain't No Sunshine
TTITLE6=Lighthouse Family - Ain't No Sunshine
TTITLE7=Paul Brown - Ain't No Sunshine
TTITLE8=Smoma - Ain't No Sunshine
TTITLE9=Beaujolais Band - Ain't No Sunshine
TTITLE10=The Reel and Soul Association - Ain't No Sunshine
TTITLE11=Arthur Lipner - Ain't No Sunshine
TTITLE12=The Persuasions - Ain't No Sunshine
TTITLE13=Bradley Leighton - Ain't No Sunshine
TTITLE14=Ken Booth - Ain't No Sunshine
TTITLE15=Roy Ayers - Ain't No Sunshine
TTITLE16=Christy Baron - Ain't No Sunshine
TTITLE17=Woven Hand - Ain't No Sunshine
EXTD=YEAR: 2006
EXTT0=
EXTT1=
EXTT2=
EXTT3=
EXTT4=
EXTT5=
EXTT6=
EXTT7=
EXTT8=
EXTT9=
EXTT10=
EXTT11=
EXTT12=
EXTT13=
EXTT14=
EXTT15=
EXTT16=
EXTT17=
PLAYORDER=
